<?xml version="1.0" encoding="UTF-8"?><!DOCTYPE svg PUBLIC "-//W3C//DTD SVG 1.1//EN" "http://www.w3.org/Graphics/SVG/1.1/DTD/svg11.dtd"><svg xmlns="http://www.w3.org/2000/svg" xmlns:xlink="http://www.w3.org/1999/xlink" version="1.1" id="Layer_1" x="0px" y="0px" width="72px" height="72px" viewBox="0 0 72 72" xml:space="preserve"><path d="M36.118 15.934a9.132 9.132 0 0 0-6.498 2.691c-3.582 3.582-3.582 9.41 0 12.992a9.138 9.138 0 0 0 6.5 2.691 9.127 9.127 0 0 0 6.496-2.691c3.582-3.582 3.582-9.41 0-12.992a9.128 9.128 0 0 0-6.498-2.691zm3.67 12.855a5.153 5.153 0 0 1-3.668 1.52 5.166 5.166 0 0 1-3.671-1.52 5.194 5.194 0 0 1 0-7.336 5.154 5.154 0 0 1 3.669-1.52c1.387 0 2.69.539 3.67 1.52a5.196 5.196 0 0 1 0 7.336z"/><path d="M50.32 21.823c-.07-.301-.117-.52-.154-.688-.076-.355-.123-.57-.248-.861a1.005 1.005 0 0 0-1.314-.523c-.504.218-.74.806-.522 1.314.047.107.065.183.131.49.037.179.088.411.162.729a1.003 1.003 0 0 0 1.203.743c.537-.128.869-.667.742-1.204z"/><path d="M48.382 17.217a15.048 15.048 0 0 0-10.69-6.865 1 1 0 1 0-.271 1.982 13.042 13.042 0 0 1 9.271 5.955 1 1 0 0 0 1.69-1.072z"/><path d="M36.001 3.262c-11.841 0-21.474 9.633-21.474 21.473 0 7.726 11.138 32.257 14.13 38.154 2.582 5.09 5.77 5.85 7.442 5.85 2.896 0 5.533-2.08 7.428-5.858 2.838-5.659 13.947-30.505 13.947-38.145.001-11.841-9.633-21.474-21.473-21.474zm3.95 57.826c-1.145 2.285-2.586 3.65-3.852 3.65-1.284 0-2.695-1.334-3.875-3.66-3.975-7.834-13.697-30.272-13.697-36.342 0-9.635 7.839-17.473 17.474-17.473 9.636 0 17.474 7.838 17.474 17.473 0 6.162-10.047 29.422-13.524 36.352z"/><metadata><rdf:RDF xmlns:rdf="http://www.w3.org/1999/02/22-rdf-syntax-ns#" xmlns:rdfs="http://www.w3.org/2000/01/rdf-schema#" xmlns:dc="http://purl.org/dc/elements/1.1/"><rdf:Description about="https://iconscout.com/legal#licenses" dc:title="location" dc:description="location" dc:publisher="Iconscout" dc:date="2017-09-14" dc:format="image/svg+xml" dc:language="en"><dc:creator><rdf:Bag><rdf:li>Taras Shypka</rdf:li></rdf:Bag></dc:creator></rdf:Description></rdf:RDF></metadata></svg>