<svg id="Capa_1" enable-background="new 0 0 512.107 512.107" height="512" viewBox="0 0 512.107 512.107" width="512" xmlns="http://www.w3.org/2000/svg"><g><path d="m256.054 271.013c41.355 0 75-33.645 75-75s-33.645-75-75-75-75 33.645-75 75 33.645 75 75 75zm0-120c24.813 0 45 20.187 45 45s-20.187 45-45 45-45-20.187-45-45 20.187-45 45-45z"/><path d="m97.362 238.535-15.564 58.085 58.085 15.564 10.265 38.309-57.73 103.69 71.949-5.947 33.03 63.871 58.656-104.458 58.657 104.458 33.029-63.871 71.949 5.947-57.73-103.69 10.265-38.309 58.085-15.564-15.563-58.085 42.521-42.521-42.554-42.555 15.528-59.07-58.017-15.546-16.007-59.736-58.43 22.628-41.732-41.735-41.734 41.735-58.43-22.628-16.007 59.736-58.017 15.546 15.529 59.07-42.555 42.555zm101.123 210.364-16.656-32.208-35.85 2.963 30.656-55.062 36.772-9.853 24.076 24.709zm167.644-29.245-35.85-2.963-16.656 32.208-38.999-69.451 24.076-24.709 36.773 9.853zm-247.657-304.016 45.906-12.301 11.84-44.188 45.494 17.619 34.342-34.342 34.342 34.342 45.494-17.618 11.841 44.188 45.905 12.301-12.317 46.853 33.522 33.522-33.556 33.555 12.282 45.838-45.837 12.282-12.283 45.838-45.964-12.316-33.43 34.309-33.429-34.309-45.964 12.316-12.282-45.838-45.838-12.282 12.283-45.838-33.556-33.555 33.522-33.522z"/></g></svg>