<?xml version="1.0" encoding="UTF-8" standalone="no"?>
<svg xmlns:dc="http://purl.org/dc/elements/1.1/" xmlns:cc="http://creativecommons.org/ns#" xmlns:rdf="http://www.w3.org/1999/02/22-rdf-syntax-ns#" xmlns:svg="http://www.w3.org/2000/svg" xmlns="http://www.w3.org/2000/svg" xmlns:sodipodi="http://sodipodi.sourceforge.net/DTD/sodipodi-0.dtd" xmlns:inkscape="http://www.inkscape.org/namespaces/inkscape" width="32px" height="32px" viewBox="0 0 32 32.000001" id="svg2" version="1.1" inkscape:version="0.91 r13725" sodipodi:docname="16 product gift wrapping birthday  present box package.svg">
  <defs id="defs4"/>
  <sodipodi:namedview id="base" pagecolor="#ffffff" bordercolor="#666666" borderopacity="1.0" inkscape:pageopacity="0.0" inkscape:pageshadow="2" inkscape:zoom="15.839192" inkscape:cx="0.607651" inkscape:cy="14.018867" inkscape:document-units="px" inkscape:current-layer="layer1" showgrid="true" units="px" inkscape:snap-bbox="true" inkscape:bbox-nodes="true" inkscape:snap-bbox-midpoints="true" inkscape:bbox-paths="true" inkscape:snap-bbox-edge-midpoints="true" inkscape:window-width="1920" inkscape:window-height="1027" inkscape:window-x="-8" inkscape:window-y="-8" inkscape:window-maximized="1">
    <inkscape:grid type="xygrid" id="grid3366"/>
  </sodipodi:namedview>
  
  <g inkscape:label="Layer 1" inkscape:groupmode="layer" id="layer1" transform="translate(0,-1020.3622)">
    <path style="color:#000000;font-style:normal;font-variant:normal;font-weight:normal;font-stretch:normal;font-size:medium;line-height:normal;font-family:sans-serif;text-indent:0;text-align:start;text-decoration:none;text-decoration-line:none;text-decoration-style:solid;text-decoration-color:#000000;letter-spacing:normal;word-spacing:normal;text-transform:none;direction:ltr;block-progression:tb;writing-mode:lr-tb;baseline-shift:baseline;text-anchor:start;white-space:normal;clip-rule:nonzero;display:inline;overflow:visible;visibility:visible;opacity:1;isolation:auto;mix-blend-mode:normal;color-interpolation:sRGB;color-interpolation-filters:linearRGB;solid-color:#000000;solid-opacity:1;fill:#000000;fill-opacity:1;fill-rule:nonzero;stroke:none;stroke-width:1;stroke-linecap:round;stroke-linejoin:round;stroke-miterlimit:4;stroke-dasharray:none;stroke-dashoffset:2;stroke-opacity:1;color-rendering:auto;image-rendering:auto;shape-rendering:auto;text-rendering:auto;enable-background:accumulate" d="M 13.984375 3 A 0.50005 0.50005 0 0 0 13.746094 3.0644531 C 12.407547 3.816594 11.536444 5.1772925 11.376953 6.6933594 L 4.5 6.6933594 C 4.2238691 6.693387 4.0000276 6.9172285 4 7.1933594 L 4 11.808594 C 4.0000276 12.084725 4.2238691 12.308566 4.5 12.308594 L 5 12.308594 L 5 27.5 C 5.0000276 27.776131 5.2238691 27.999972 5.5 28 L 14.5 28 L 17.5 28 L 26.5 28 C 26.776131 27.999972 26.999972 27.776131 27 27.5 L 27 12.308594 L 27.546875 12.308594 C 27.823006 12.308566 28.046847 12.084725 28.046875 11.808594 L 28.046875 7.1933594 C 28.046847 6.9172285 27.823006 6.693387 27.546875 6.6933594 L 20.623047 6.6933594 C 20.463556 5.1772925 19.592453 3.816594 18.253906 3.0644531 A 0.50005 0.50005 0 0 0 18.013672 3 A 0.50005 0.50005 0 0 0 17.570312 3.2597656 L 16 6.1210938 L 14.429688 3.2597656 A 0.50005 0.50005 0 0 0 13.986328 3 A 0.50005 0.50005 0 0 1 13.984375 3 z M 13.863281 4.3066406 L 15.175781 6.6933594 L 14.5 6.6933594 L 12.478516 6.6933594 C 12.615544 5.7276594 13.099051 4.8974406 13.863281 4.3066406 z M 18.136719 4.3066406 C 18.90095 4.8974406 19.384456 5.7276594 19.521484 6.6933594 L 17.5 6.6933594 L 16.824219 6.6933594 L 18.136719 4.3066406 z M 5 7.6933594 L 11.84375 7.6933594 L 14 7.6933594 L 14 11.308594 L 5 11.308594 L 5 7.6933594 z M 15 7.6933594 L 16.019531 7.6933594 L 17 7.6933594 L 17 27 L 15 27 L 15 7.6933594 z M 18 7.6933594 L 20.15625 7.6933594 L 27.046875 7.6933594 L 27.046875 11.308594 L 18 11.308594 L 18 7.6933594 z M 6 12.308594 L 14 12.308594 L 14 27 L 6 27 L 6 12.308594 z M 18 12.308594 L 26 12.308594 L 26 27 L 18 27 L 18 12.308594 z M 14.296875 27.955078 A 0.50005 0.50005 0 0 0 14.3125 27.962891 C 14.306989 27.960662 14.302286 27.957496 14.296875 27.955078 z M 17.705078 27.955078 C 17.698041 27.95825 17.6908 27.960039 17.683594 27.962891 A 0.50005 0.50005 0 0 0 17.705078 27.955078 z " transform="translate(0,1020.3622)" id="rect20596"/>
  </g>

	
	
	<metadata>
		<rdf:RDF xmlns:rdf="http://www.w3.org/1999/02/22-rdf-syntax-ns#" xmlns:rdfs="http://www.w3.org/2000/01/rdf-schema#" xmlns:dc="http://purl.org/dc/elements/1.1/">
			<rdf:Description about="https://iconscout.com/legal#licenses" dc:title="Product, Gift, Wrapping, Birthday, Present, Box, Package" dc:description="Product, Gift, Wrapping, Birthday, Present, Box, Package" dc:publisher="Iconscout" dc:date="2016-12-14" dc:format="image/svg+xml" dc:language="en">
				<dc:creator>
					<rdf:Bag>
						<rdf:li>Chamestudio</rdf:li>
					</rdf:Bag>
				</dc:creator>
			</rdf:Description>
		</rdf:RDF>
    </metadata></svg>
