<?xml version="1.0"?>
<svg xmlns="http://www.w3.org/2000/svg" width="512" height="512" viewBox="0 0 128 128"><g><path d="M100.154,114.25a4.75,4.75,0,1,0-4.75-4.75A4.756,4.756,0,0,0,100.154,114.25Zm0-6a1.25,1.25,0,1,1-1.25,1.25A1.251,1.251,0,0,1,100.154,108.25Z"/><path d="M52.1,104.75a4.75,4.75,0,1,0,4.75,4.75A4.756,4.756,0,0,0,52.1,104.75Zm0,6a1.25,1.25,0,1,1,1.25-1.25A1.251,1.251,0,0,1,52.1,110.75Z"/><path d="M103.3,62.07A16.1,16.1,0,0,1,97.93,64.3,1.75,1.75,0,0,0,98.3,67.76a1.8,1.8,0,0,0,.37-.039A19.6,19.6,0,0,0,105.2,65.01a1.75,1.75,0,1,0-1.9-2.94Z"/><path d="M123.25,43.58a4.756,4.756,0,0,0-4.75-4.75H80.875V9.5a4.744,4.744,0,0,0-9.156-1.75H57.75a25.614,25.614,0,0,0-9.377,1.775c-.03.009-.059.025-.089.036A25.812,25.812,0,0,0,32.226,30.142l-4.765-7.254A16.767,16.767,0,0,0,15.9,15.519l-5.718-.842A4.812,4.812,0,0,0,4.8,18.7a4.756,4.756,0,0,0,4.007,5.386l5.714.841a7.225,7.225,0,0,1,5,3.189l9.574,14.576A4.7,4.7,0,0,0,32,47.986v.424A25.78,25.78,0,0,0,57.739,74.16L69.379,85.7,57.914,97.059a13.788,13.788,0,1,0,6.68,6.74l11.53-11.423L87.657,103.8a13.8,13.8,0,1,0,6.686-6.744L82.874,85.688,94.511,74.16A25.78,25.78,0,0,0,120.25,48.41v-.424A4.749,4.749,0,0,0,123.25,43.58Zm-3.5,0a1.251,1.251,0,0,1-1.25,1.25H33.751a1.25,1.25,0,1,1,0-2.5H118.5A1.252,1.252,0,0,1,119.75,43.58ZM35.5,33.5a22.2,22.2,0,0,1,.747-5.713L61.117,38.83H35.5ZM76.125,8.25a1.251,1.251,0,0,1,1.25,1.25V38.83h-2.5V9.544c0-.015,0-.029,0-.044l0-.014A1.25,1.25,0,0,1,76.125,8.25Zm-4.75,3V35.208l-19.5-23.165a22.2,22.2,0,0,1,5.874-.793ZM48.381,13.326l21.468,25.5h-.108L37.419,24.478A22.381,22.381,0,0,1,48.381,13.326ZM15.025,21.459l-5.711-.841a1.257,1.257,0,0,1-1.053-1.412A1.264,1.264,0,0,1,9.5,18.13a1.4,1.4,0,0,1,.185.012l5.7.839a13.268,13.268,0,0,1,9.15,5.83L32,36.174v3a4.757,4.757,0,0,0-.768.4L22.443,26.19A10.724,10.724,0,0,0,15.025,21.459Zm47.687,52.7H66.26l7.383,7.31-1.777,1.762Zm13.417,4.846-4.9-4.846h9.784ZM52.1,119.75a10.25,10.25,0,1,1,10.25-10.25A10.261,10.261,0,0,1,52.1,119.75Zm8.844-20.763,12.12-12.013c.017-.015.036-.026.052-.042s.023-.03.036-.044L77.37,82.7l0,0,0,0,8.615-8.538h3.546L62.7,100.752A13.877,13.877,0,0,0,60.941,98.987ZM110.4,109.5a10.25,10.25,0,1,1-10.25-10.25A10.261,10.261,0,0,1,110.4,109.5ZM91.315,98.983a13.9,13.9,0,0,0-1.762,1.77L78.61,89.913l1.778-1.761ZM94.5,70.66H57.75A22.275,22.275,0,0,1,35.5,48.41v-.08h81.25v.08A22.275,22.275,0,0,1,94.5,70.66Z"/></g></svg>
